<?xml version="1.0" encoding="utf-8"?>
<!-- Generator: Adobe Illustrator 21.1.0, SVG Export Plug-In . SVG Version: 6.00 Build 0)  -->
<svg version="1.1" id="Layer_1" xmlns="http://www.w3.org/2000/svg" xmlns:xlink="http://www.w3.org/1999/xlink" x="0px" y="0px"
	 viewBox="0 0 334 713" style="enable-background:new 0 0 334 713;" xml:space="preserve">
<style type="text/css">
	.st0{fill:#FFFFFF;}
	.st1{fill:#A6A385;}
	.st2{fill:#499D4A;}
	.st3{fill:#58AA50;}
</style>
<g>
	<path class="st0" d="M182.8,703.5l-18.5-6.3c0,0,2.3-94.2-31.5-100.9c-22.5-26.1,3.6-1108.5,84.7-3.6c0,0-27.9,14-32.9,37.9
		C179.2,653.9,182.8,703.5,182.8,703.5L182.8,703.5z"/>
	<path class="st1" d="M182.8,703.5l-18.5-6.3c0,0,2.3-94.2-31.5-100.9c-22.5-26.1,3.6-1108.5,84.7-3.6c0,0-27.9,14-32.9,37.9
		C179.2,653.9,182.8,703.5,182.8,703.5L182.8,703.5z"/>
	<path class="st0" d="M192.7,612.4c0,0,161.8-106.3,123.9-327.6C280.1,124,194.1,71.3,184.6,51c-10.4-14.4-20.3-39.6-20.3-39.6
		l6.8,447.4C171.1,459.2,157.1,595.8,192.7,612.4"/>
	<path class="st2" d="M192.7,612.4c0,0,161.8-106.3,123.9-327.6C280.1,124,194.1,71.3,184.6,51c-10.4-14.4-20.3-39.6-20.3-39.6
		l6.8,447.4C171.1,459.2,157.1,595.8,192.7,612.4"/>
	<path class="st0" d="M154.9,618.3c0,0-151.9-103.6-142.8-286.1C20.6,149.7,127.8,60,148.6,43.8c13.5-14.4,14-19.8,14.9-34.2
		c9.5,20.3,7.7,303.3,9,336.6C176.5,474.6,165.2,594,154.9,618.3z"/>
	<path class="st3" d="M154.9,618.3c0,0-151.9-103.6-142.8-286.1C20.6,149.7,127.8,60,148.6,43.8c13.5-14.4,14-19.8,14.9-34.2
		c9.5,20.3,7.7,303.3,9,336.6C176.5,474.6,165.2,594,154.9,618.3z"/>
</g>
</svg>
